<?xml version="1.0" encoding="UTF-8"?>
<svg id="Layer_1" xmlns="http://www.w3.org/2000/svg" version="1.1" viewBox="0 0 944.9 125.5">
  <!-- Generator: Adobe Illustrator 29.1.0, SVG Export Plug-In . SVG Version: 2.1.0 Build 142)  -->
  <defs>
    <style>
      .st0 {
        fill: none;
        stroke: #fff;
        stroke-miterlimit: 10;
        stroke-width: 7px;
      }

      .st1 {
        fill: #fff;
      }
    </style>
  </defs>
  <g>
    <path class="st1" d="M16.2,55.6v38.6h-5.4V12h5.4v38.6h25.6V12h5.5v82.2h-5.5v-38.6h-25.6Z"/>
    <path class="st1" d="M56.4,32.1c0-12,5.5-20.8,18-20.8s18.2,8.8,18.2,20.8v42.1c0,12-5.5,20.8-18.2,20.8s-18-8.8-18-20.8c0,0,0-42.1,0-42.1ZM61.8,74.5c0,8.9,3.5,15.5,12.6,15.5s12.8-6.6,12.8-15.5V31.7c0-8.9-3.6-15.5-12.8-15.5s-12.6,6.6-12.6,15.5c0,0,0,42.8,0,42.8Z"/>
    <path class="st1" d="M118.6,12c12.6,0,17.6,6.9,17.6,18.6v7.2c0,9.6-3.8,15.2-11.9,17,8.5,1.9,11.9,7.9,11.9,16.8v12.8c0,3.4.2,7.2,2,9.9h-5.6c-1.4-2.5-1.8-5.4-1.8-9.9v-12.9c0-10.9-6-14-15.4-14h-8.6v36.8h-5.4V12h17.2ZM115.6,52.5c9.6,0,15.3-2.7,15.3-13.7v-7.8c0-8.8-3.4-14.1-12.3-14.1h-11.6v35.6h8.7,0Z"/>
    <path class="st1" d="M161,94.2V16.9h-16.8v-4.9h38.9v4.9h-16.7v77.3h-5.4Z"/>
    <path class="st1" d="M218,50.1v4.9h-22.4v34.3h27v4.9h-32.4V12h32.4v4.9h-27v33.1h22.4Z"/>
    <path class="st1" d="M236.3,94.2h-4.9V12h7l24.7,69.4V12h4.9v82.2h-6l-25.7-73.3v73.3Z"/>
    <path class="st1" d="M299.9,12l16.7,76,16.7-76h5.1l-17.9,82.2h-8l-18.1-82.2h5.5,0Z"/>
    <path class="st1" d="M381.5,32.1v6.1h-5.2v-6.5c0-8.8-3.4-15.5-12.5-15.5s-12.5,6.7-12.5,15.5v42.8c0,8.8,3.4,15.4,12.5,15.4s12.5-6.6,12.5-15.4v-17.7h-10.9v-4.9h16.1v22.3c0,11.9-5.2,20.8-17.7,20.8s-17.7-8.9-17.7-20.8v-42.1c0-11.9,5.2-20.8,17.7-20.8s17.7,8.9,17.7,20.8Z"/>
    <path class="st1" d="M425.2,31.9v1.8h-5.2v-2.1c0-8.7-3.3-15.3-12.2-15.3s-12.2,6.5-12.2,15.2c0,20,29.7,20.3,29.7,43s-5.2,20.6-17.7,20.6-17.7-8.7-17.7-20.6v-4.2h5.2v4.6c0,8.8,3.4,15.2,12.5,15.2s12.5-6.3,12.5-15.2c0-19.7-29.7-20.1-29.7-43s5.4-20.3,17.5-20.4c12.5,0,17.5,8.7,17.5,20.6l-.2-.2Z"/>
    <path class="st1" d="M452.9,12h12.9v70.5h21.3v11.7h-34.2V12h0Z"/>
    <path class="st1" d="M494.8,59.2l-15.6-47.2h13.7l8.8,30.2h.2l8.8-30.2h12.6l-15.6,47.2v35h-12.9s0-35,0-35Z"/>
    <path class="st1" d="M529.3,12h19.7c12.9,0,19.3,7.2,19.3,20.3v41.6c0,13.2-6.3,20.3-19.3,20.3h-19.7V12ZM548.8,82.5c4.1,0,6.6-2.1,6.6-8V31.7c0-5.9-2.5-8-6.6-8h-6.6v58.7h6.6Z"/>
    <path class="st1" d="M576.9,12h19.5c13.4,0,19.1,6.2,19.1,18.9v3.3c0,8.5-2.6,13.7-8.3,16.1v.2c6.9,2.3,9.6,8.5,9.6,17.1v7c0,12.7-6.7,19.5-19.6,19.5h-20.3V12ZM594.9,45.5c4.8,0,7.8-2.1,7.8-8.7v-4.6c0-5.9-2-8.5-6.6-8.5h-6.2v21.7h5.1,0ZM597.3,82.5c4.3,0,6.7-2,6.7-8.1v-7.2c0-7.6-2.5-10-8.3-10h-5.8v25.3h7.4,0Z"/>
    <path class="st1" d="M624.4,12h12.9v82.2h-12.9V12Z"/>
    <path class="st1" d="M647,12h19.5c13.4,0,19.1,6.2,19.1,18.9v3.3c0,8.5-2.6,13.7-8.3,16.1v.2c6.9,2.3,9.6,8.5,9.6,17.1v7c0,12.7-6.7,19.5-19.6,19.5h-20.3V12ZM664.9,45.5c4.8,0,7.8-2.1,7.8-8.7v-4.6c0-5.9-2-8.5-6.6-8.5h-6.2v21.7h5.1,0ZM667.3,82.5c4.3,0,6.7-2,6.7-8.1v-7.2c0-7.6-2.5-10-8.3-10h-5.8v25.3h7.4,0Z"/>
    <path class="st1" d="M694.4,12h12.9v70.5h21.3v11.7h-34.2V12Z"/>
    <path class="st1" d="M734.8,12h12.9v82.2h-12.9V12Z"/>
    <path class="st1" d="M756.4,74.7V31.5c0-13.2,6.9-20.7,19.6-20.7s19.6,7.5,19.6,20.7v43.2c0,13.2-6.9,20.7-19.6,20.7s-19.6-7.5-19.6-20.7ZM782.7,75.6V30.7c0-5.9-2.6-8.1-6.7-8.1s-6.7,2.2-6.7,8.1v44.9c0,5.9,2.6,8.1,6.7,8.1s6.7-2.2,6.7-8.1Z"/>
    <path class="st1" d="M814,23.8h-13.5v-11.7h39.9v11.7h-13.5v70.5h-12.9V23.8Z"/>
    <path class="st1" d="M846.6,12h35.2v11.7h-22.3v21.7h17.7v11.7h-17.7v25.3h22.3v11.7h-35.2V12Z"/>
    <path class="st1" d="M889.3,12h12.9v34.7l16.4-34.7h12.9l-15.4,30.2,15.6,52h-13.5l-10.9-36.6-5.2,10.5v26.2h-12.9V12h.1Z"/>
  </g>
  <line class="st0" x1="11.1" y1="111.2" x2="932.9" y2="111.2"/>
</svg>